<svg id="Layer_1" xmlns="http://www.w3.org/2000/svg" width="288.856" height="50.001" viewBox="0 0 288.856 50.001"><linearGradient id="SVGID_1_" gradientUnits="userSpaceOnUse" x1="12.039" y1="8.564" x2="45.911" y2="42.436"><stop offset="0" stop-color="#5deaf3"/><stop offset="1" stop-color="#008bd5"/></linearGradient><path d="M37.573 6.864c-9.996.478-18.751 4.86-16.64 11.938 2.111 7.079 3.069 14.565 3.725 18.486 1.055 6.307 6.85 6.304 7.824 1.632 2.064-9.905-1.971-12.625 5.084-13.72 4.629-.719 4.683-6.273-.909-5.616-2.719.32-5.47 1.071-6.286-2.024-1.122-4.255 8.485-7.62 15.646-5.464 5.832 1.755 11.273 10.008 4.595 23.098-6.438 12.618-19.124 21.732-35.888 7.824C-2.041 29.11 1.746 13.822 16.375 6.224c8.91-4.627 17.113-3.581 21.051-2.587 4.281 1.08 3.099 3.086.147 3.227z" fill="url(#SVGID_1_)"/><path d="M43.303 7.082c-.305 1.141 6.749 4.27 7.438 1.732.691-2.539-7.134-2.874-7.438-1.732z" fill="#1da5e1"/><path d="M44.458 4.576c-.59 1.186 3.072.993 3.014-.379-.059-1.372-2.636-.381-3.014.379zM2.863 29.596c-2.241-.308-2 2.748.102 1.916 1.201-.475 1.138-1.744-.102-1.916zM48.662 41.484c.86 2.209 5.023-.748 1.068-1.594-1.263-.269-1.522.427-1.068 1.594z" fill="#c1b4f6"/><path d="M4.746 34.139c1.487-2.119-1.879-2.277-4.301-.784-1.472.907.903 5.626 4.301.784zM16.375 6.224c8.214-4.266 15.828-3.71 20.053-2.818 1.189-1.352.811-2.469-2.547-3.044-9.976-1.706-27.78 2.675-25.51 11.928 2.068-2.332 4.771-4.387 8.004-6.066z" fill="#7be1f6"/><path d="M13.014 19.03c7.774 7.121 10.653 14.296 11.549 17.674-.654-4.049-1.619-11.159-3.629-17.901-1.308-4.384 1.554-7.734 6.298-9.762 3.682-1.84 7.692-3.925 9.196-5.635-4.225-.892-11.838-1.448-20.053 2.818-3.232 1.679-5.935 3.733-8.004 6.065.495 2.02 1.946 4.271 4.643 6.741z" fill="#7be1f6"/><path d="M53.157 19.904c1.071 3.867.653 9.025-2.545 15.292a38.975 38.975 0 0 1-2.527 4.275c4.198-2.524 7.629-6.129 8.82-10.566 1.256-4.681-.57-7.395-3.748-9.001z" fill="#c1b4f6"/><path d="M53.157 19.904c-8.06-4.072-24.825-1.031-22.174-4.889-.604.779-.851 1.642-.612 2.546.816 3.096 3.567 2.344 6.286 2.024 5.592-.657 5.538 4.897.909 5.616-7.055 1.095-3.02 3.814-5.084 13.72-.621 2.978-3.2 4.058-5.263 2.817 4.347 3.196 13.719 2.03 20.865-2.268a38.66 38.66 0 0 0 2.527-4.275c3.199-6.266 3.617-11.424 2.546-15.291z" fill="#c1b4f6"/><path d="M6.521 33.701c-2.462 2.564-3.922 5.087-2.831 7.354 2.22 4.614 8.829 6.354 16.492 5.786-1.767-1.006-3.587-2.271-5.458-3.822-3.702-3.072-6.401-6.21-8.203-9.318z" fill="#1da5e1"/><path d="M51.656 18.291c-.917-2.934-2.809-4.889-5.237-6.061a9.377 9.377 0 0 0-.401-.132c-7.161-2.156-16.769 1.208-15.646 5.464.816 3.096 3.567 2.344 6.286 2.024 5.592-.657 5.538 4.897.909 5.616-7.055 1.095-3.02 3.814-5.084 13.72-.974 4.672-6.769 4.675-7.824-1.632-.656-3.921-1.614-11.407-3.725-18.486.54 3.822-9.19 9.458-14.413 14.898 1.802 3.107 4.501 6.246 8.203 9.318 1.871 1.552 3.691 2.816 5.458 3.822 15.97-1.186 36.52-12.401 31.474-28.551z" fill="#1da5e1"/><path d="M73.02 7.279c.599 0 1.114.209 1.545.629.419.431.629.946.629 1.545v.036c0 .599-.209 1.114-.629 1.545a2.14 2.14 0 0 1-1.545.629h-1.024c-.982 0-1.814.341-2.497 1.024-.671.683-1.012 1.341-1.024 1.976h4.544c.599 0 1.114.215 1.545.646.419.419.629.928.629 1.527v.036c0 .599-.209 1.114-.629 1.545a2.108 2.108 0 0 1-1.545.646h-4.544v14.101c0 .61-.216 1.119-.647 1.526-.431.432-.94.647-1.527.647h-.054c-.587 0-1.096-.216-1.527-.647-.431-.407-.646-.916-.646-1.526V15.183c.024-2.192.796-4.054 2.317-5.587 1.545-1.545 3.413-2.317 5.604-2.317h1.025zM80.655 7.279c.587 0 1.096.209 1.527.629.431.431.647.946.647 1.545v23.711c0 .61-.216 1.119-.647 1.526-.431.432-.94.647-1.527.647h-.054c-.587 0-1.096-.216-1.527-.647-.431-.407-.647-.916-.647-1.526V9.453c0-.599.216-1.114.647-1.545.431-.419.94-.629 1.527-.629h.054zM106.343 20.68c.144.3.215.605.215.917a2.1 2.1 0 0 1-.144.754 2.065 2.065 0 0 1-1.149 1.222c-1.677.754-3.88 1.749-6.611 2.982a803.284 803.284 0 0 0-5.964 2.712c.91 1.149 2.329 1.725 4.257 1.725a5.8 5.8 0 0 0 3.485-1.132 5.863 5.863 0 0 0 2.138-2.874c.347-.981 1.042-1.473 2.084-1.473.742 0 1.335.312 1.778.934.275.384.413.784.413 1.204 0 .251-.048.509-.144.772-.707 2.048-1.946 3.7-3.719 4.958-1.796 1.305-3.808 1.958-6.036 1.958-2.851 0-5.288-1.013-7.312-3.036-2.024-2.024-3.036-4.461-3.036-7.312 0-2.849 1.012-5.287 3.036-7.311s4.461-3.036 7.312-3.036c2.06 0 3.94.563 5.641 1.688 1.69 1.103 2.942 2.551 3.756 4.348zm-9.395-1.599c-1.653 0-3.06.581-4.222 1.743-1.149 1.162-1.725 2.568-1.725 4.221v.125l10.042-4.508c-.885-1.054-2.251-1.581-4.095-1.581zM114.212 18.417c0 1.186.413 2.197 1.239 3.036.838.838 1.856 1.257 3.054 1.257 1.186 0 2.197-.419 3.036-1.257.826-.838 1.24-1.85 1.24-3.036v-1.581c0-.599.215-1.114.646-1.545s.946-.646 1.545-.646h.036c.61 0 1.12.215 1.527.646.431.431.646.94.646 1.527v1.599c0 2.874-.958 5.036-2.874 6.485 1.916 1.461 2.874 3.622 2.874 6.484v1.778c0 .61-.215 1.119-.646 1.526-.407.432-.917.647-1.527.647h-.036a2.109 2.109 0 0 1-1.545-.647c-.431-.407-.646-.916-.646-1.526v-1.778c0-1.186-.414-2.198-1.24-3.036-.838-.826-1.85-1.239-3.036-1.239-1.198 0-2.216.413-3.054 1.239-.826.838-1.239 1.851-1.239 3.036v1.778c0 .61-.216 1.119-.647 1.526-.431.432-.94.647-1.527.647h-.054c-.587 0-1.096-.216-1.527-.647-.431-.407-.647-.916-.647-1.526v-1.778c0-2.862.958-5.023 2.875-6.484-1.917-1.449-2.875-3.611-2.875-6.485v-1.581c0-.599.216-1.114.647-1.545.432-.431.94-.646 1.527-.646h.054c.587 0 1.096.215 1.527.646s.647.946.647 1.545v1.581zM134.906 26.267c0 1.185.413 2.196 1.24 3.035.838.838 1.856 1.258 3.054 1.258 1.174 0 2.18-.42 3.018-1.258.838-.839 1.257-1.851 1.257-3.035v-9.431c0-.599.216-1.114.646-1.545a2.108 2.108 0 0 1 1.545-.646h.036c.61 0 1.12.215 1.527.646.431.431.646.946.646 1.545v17.191c0 2.371-.893 4.419-2.677 6.144-1.736 1.7-3.736 2.551-6 2.551-1.796 0-3.431-.443-4.904-1.329-1.437-.862-2.527-2.019-3.27-3.467a2.102 2.102 0 0 1-.251-.971c0-.275.06-.551.18-.826.24-.623.659-1.036 1.258-1.239l.072-.036c.263-.084.521-.126.772-.126.263 0 .521.048.772.144.491.204.862.545 1.114 1.024.383.719.958 1.299 1.725 1.742a4.932 4.932 0 0 0 2.533.683c1.138 0 2.132-.419 2.982-1.257.862-.862 1.293-1.875 1.293-3.036v-.144c-.946.706-2.371 1.06-4.275 1.06-2.395 0-4.443-.851-6.144-2.551-1.701-1.688-2.551-3.73-2.551-6.125v-9.431c0-.599.215-1.114.646-1.545s.94-.646 1.527-.646h.054c.586 0 1.096.215 1.527.646s.646.946.646 1.545v9.43zM171.391 7.279c.599 0 1.113.209 1.545.629.419.431.629.946.629 1.545v.036a2.14 2.14 0 0 1-.629 1.545 2.141 2.141 0 0 1-1.545.629h-1.024c-.981 0-1.814.341-2.497 1.024-.67.683-1.012 1.341-1.023 1.976h4.545a2.11 2.11 0 0 1 1.545.646c.419.419.629.928.629 1.527v.036a2.14 2.14 0 0 1-.629 1.545 2.11 2.11 0 0 1-1.545.646h-4.545v14.101c0 .61-.216 1.119-.646 1.526-.432.432-.94.647-1.527.647h-.054c-.587 0-1.096-.216-1.527-.647-.431-.407-.646-.916-.646-1.526V15.183c.024-2.192.797-4.054 2.317-5.587 1.545-1.545 3.413-2.317 5.604-2.317h1.023zM178.953 12.309a2.427 2.427 0 0 1-1.778-.736 2.423 2.423 0 0 1-.736-1.778c0-.683.245-1.27.736-1.761a2.423 2.423 0 0 1 1.778-.736c.683 0 1.27.246 1.761.736.503.479.754 1.066.754 1.761 0 .707-.251 1.299-.754 1.778a2.406 2.406 0 0 1-1.761.736zm.019 2.335c.61 0 1.119.215 1.526.646.432.431.646.946.646 1.545v16.329c0 .61-.215 1.119-.646 1.526-.407.432-.916.647-1.526.647h-.036a2.109 2.109 0 0 1-1.545-.647c-.432-.407-.646-.916-.646-1.526V16.835c0-.599.215-1.114.646-1.545a2.108 2.108 0 0 1 1.545-.646h.036zM189.821 33.164c0 .61-.216 1.119-.646 1.526-.432.432-.94.647-1.527.647h-.054c-.587 0-1.096-.216-1.526-.647-.432-.407-.647-.916-.647-1.526v-9.826c0-2.395.851-4.443 2.551-6.144 1.701-1.701 3.749-2.551 6.145-2.551 2.383 0 4.425.85 6.125 2.551 1.701 1.701 2.551 3.749 2.551 6.144v9.826c0 .61-.215 1.119-.646 1.526-.407.432-.916.647-1.526.647h-.036a2.109 2.109 0 0 1-1.545-.647c-.432-.407-.646-.916-.646-1.526v-9.826c0-1.186-.414-2.197-1.24-3.036-.838-.838-1.85-1.258-3.035-1.258-1.198 0-2.216.419-3.055 1.258-.826.838-1.239 1.85-1.239 3.036v9.826zM224.043 17.68c2.023 2.024 3.035 4.461 3.035 7.311v8.174c0 .61-.215 1.119-.646 1.526-.431.432-.939.647-1.526.647h-.055c-.586 0-1.096-.216-1.526-.647-.432-.407-.646-.916-.646-1.526-1.365 1.449-3.348 2.174-5.946 2.174-2.851 0-5.287-1.013-7.312-3.036-2.023-2.024-3.036-4.461-3.036-7.312 0-2.849 1.013-5.287 3.036-7.311 2.024-2.024 4.461-3.036 7.312-3.036s5.286 1.012 7.31 3.036zm-11.533 3.108c-1.149 1.162-1.725 2.562-1.725 4.203 0 1.653.575 3.06 1.725 4.222 1.162 1.149 2.569 1.725 4.222 1.725s3.054-.575 4.203-1.725c1.162-1.162 1.743-2.568 1.743-4.222 0-1.64-.581-3.041-1.743-4.203-1.161-1.162-2.562-1.743-4.203-1.743-1.653 0-3.06.581-4.222 1.743zM235.072 33.164c0 .61-.216 1.119-.646 1.526-.431.432-.94.647-1.527.647h-.054c-.587 0-1.096-.216-1.526-.647-.432-.407-.647-.916-.647-1.526v-9.826c0-2.395.851-4.443 2.552-6.144 1.7-1.701 3.748-2.551 6.144-2.551 2.383 0 4.425.85 6.125 2.551 1.701 1.701 2.551 3.749 2.551 6.144v9.826c0 .61-.215 1.119-.646 1.526-.407.432-.916.647-1.526.647h-.036a2.109 2.109 0 0 1-1.545-.647c-.432-.407-.646-.916-.646-1.526v-9.826c0-1.186-.413-2.197-1.24-3.036-.838-.838-1.85-1.258-3.035-1.258-1.198 0-2.216.419-3.055 1.258-.826.838-1.239 1.85-1.239 3.036v9.826zM264.569 15.129c1.018.323 1.526 1.018 1.526 2.084v.09c0 .73-.293 1.312-.88 1.742-.407.288-.826.431-1.258.431a2.45 2.45 0 0 1-.7-.107 5.795 5.795 0 0 0-1.814-.288c-1.652 0-3.06.581-4.222 1.743-1.149 1.162-1.725 2.568-1.725 4.221 0 1.641.575 3.041 1.725 4.203 1.162 1.161 2.569 1.742 4.222 1.742.623 0 1.228-.096 1.814-.287.228-.072.455-.108.683-.108.443 0 .868.145 1.275.432.587.431.88 1.018.88 1.761 0 1.054-.509 1.748-1.526 2.083a10.492 10.492 0 0 1-3.126.468c-2.851 0-5.287-1.013-7.312-3.036-2.023-2.024-3.035-4.461-3.035-7.312 0-2.849 1.012-5.287 3.035-7.311 2.024-2.024 4.461-3.036 7.312-3.036 1.078 0 2.12.162 3.126.485zM288.354 20.68c.144.3.216.605.216.917 0 .251-.048.503-.145.754a2.06 2.06 0 0 1-1.149 1.222c-1.677.754-3.88 1.749-6.61 2.982a782.469 782.469 0 0 0-5.964 2.712c.91 1.149 2.329 1.725 4.257 1.725a5.8 5.8 0 0 0 3.485-1.132 5.863 5.863 0 0 0 2.138-2.874c.348-.981 1.042-1.473 2.084-1.473.742 0 1.335.312 1.778.934.275.384.413.784.413 1.204 0 .251-.048.509-.144.772-.707 2.048-1.946 3.7-3.719 4.958-1.797 1.305-3.809 1.958-6.036 1.958-2.85 0-5.287-1.013-7.312-3.036-2.023-2.024-3.035-4.461-3.035-7.312 0-2.849 1.012-5.287 3.035-7.311 2.024-2.024 4.462-3.036 7.312-3.036 2.061 0 3.94.563 5.641 1.688 1.688 1.103 2.94 2.551 3.755 4.348zm-9.396-1.599c-1.652 0-3.06.581-4.222 1.743-1.149 1.162-1.725 2.568-1.725 4.221v.125l10.042-4.508c-.885-1.054-2.25-1.581-4.095-1.581z" fill="#2364aa"/></svg>